<svg id="레이어_2" data-name="레이어 2" xmlns="http://www.w3.org/2000/svg" width="28.012" height="28.271" viewBox="0 0 28.012 28.271">
  <g id="레이어_1" data-name="레이어 1" transform="translate(0 0)">
    <g id="그룹_18" data-name="그룹 18" transform="translate(0 0)">
      <path id="패스_35" data-name="패스 35" d="M3.017,1.98c-.686,0-1.354.008-2.021,0A.971.971,0,0,1,.074.645.912.912,0,0,1,.944.036q1.493-.013,2.984,0a.954.954,0,0,1,.945.9q.193,1.786.374,3.573c.013.12.033.244.055.4H25.977a1.9,1.9,0,0,1,2.012,1.58,3.445,3.445,0,0,1-.09,1.2q-1.106,5.237-2.242,10.468A2.9,2.9,0,0,1,22.728,20.5q-7.523,0-15.045,0A2.924,2.924,0,0,1,4.69,17.77C4.4,14.964,4.1,12.156,3.8,9.355q-.384-3.6-.757-7.206C3.039,2.11,3.031,2.07,3.017,1.98ZM5.5,6.868c.139,1.3.275,2.577.407,3.848.244,2.278.478,4.561.723,6.841a.985.985,0,0,0,1.133,1h14.89a1,1,0,0,0,1.114-.891q.976-4.52,1.941-9.04c.124-.58.244-1.16.373-1.753Z" transform="translate(0.001 -0.03)" fill="#272727"/>
      <path id="패스_36" data-name="패스 36" d="M71.92,278.554a2.923,2.923,0,1,1,2.914,2.933A2.923,2.923,0,0,1,71.92,278.554Zm3.9.035a.976.976,0,1,0-.991.949A.976.976,0,0,0,75.816,278.589Z" transform="translate(-66.068 -253.215)" fill="#272727"/>
      <path id="패스_37" data-name="패스 37" d="M221.507,278.557a2.923,2.923,0,1,1-2.929-2.917,2.923,2.923,0,0,1,2.929,2.917Zm-1.953.011a.976.976,0,1,0-.97.97.976.976,0,0,0,.97-.97Z" transform="translate(-198.113 -253.215)" fill="#272727"/>
      <path id="패스_38" data-name="패스 38" d="M97.766,300.592a.976.976,0,1,1-.941-1A.976.976,0,0,1,97.766,300.592Z" transform="translate(-88.017 -275.219)" fill="#272727"/>
      <path id="패스_39" data-name="패스 39" d="M241.512,300.6a.976.976,0,1,1-.962-.976A.976.976,0,0,1,241.512,300.6Z" transform="translate(-220.068 -275.243)" fill="#272727"/>
    </g>
  </g>
</svg>
