<svg xmlns="http://www.w3.org/2000/svg" width="26.27" height="28.988" viewBox="0 0 26.27 28.988">
  <path id="bell" d="M27.034,16.5,24.74,8.243a11.257,11.257,0,0,0-21.834.572L1.13,16.8a6.038,6.038,0,0,0,5.895,7.349H8.37a6.038,6.038,0,0,0,11.835,0h1.012A6.038,6.038,0,0,0,27.036,16.5ZM14.287,26.568a3.623,3.623,0,0,1-3.4-2.415h6.8a3.623,3.623,0,0,1-3.4,2.415ZM24.1,20.307a3.6,3.6,0,0,1-2.885,1.431H7.024a3.623,3.623,0,0,1-3.536-4.409l1.775-7.99a8.841,8.841,0,0,1,17.149-.449l2.295,8.256a3.6,3.6,0,0,1-.606,3.162Z" transform="translate(-0.986 -0.002)" fill="#fff"/>
</svg>
