<svg xmlns="http://www.w3.org/2000/svg" width="28.681" height="21.036" viewBox="0 0 28.681 21.036">
  <g id="레이어_2" data-name="레이어 2" transform="translate(0 0.007)">
    <g id="레이어_1" data-name="레이어 1" transform="translate(0 -0.007)">
      <g id="그룹_453" data-name="그룹 453">
        <path id="패스_686" data-name="패스 686" d="M18.215,1.688c.539-.365,1.061-.711,1.576-1.07a3.367,3.367,0,0,1,2.015-.624c1.184.011,2.369,0,3.554,0a3.178,3.178,0,0,1,3.318,3.3q0,7.216,0,14.431a3.18,3.18,0,0,1-3.29,3.3c-1.215,0-2.43,0-3.645,0a3.259,3.259,0,0,1-1.883-.57c-.553-.372-1.107-.742-1.676-1.123-.4.319-.805.624-1.2.941a3.352,3.352,0,0,1-2.182.752q-5.735-.007-11.471,0A3.18,3.18,0,0,1,0,17.71V3.312A3.181,3.181,0,0,1,3.307,0q5.781,0,11.56,0a3.242,3.242,0,0,1,2.075.7C17.359,1.026,17.777,1.35,18.215,1.688Zm8.553,8.84V3.3a1.285,1.285,0,0,0-1.4-1.389c-1.185,0-2.37-.016-3.554.011a1.809,1.809,0,0,0-.836.247c-.6.351-1.168.758-1.756,1.135a1.778,1.778,0,0,1-2.19-.1c-.4-.313-.8-.626-1.2-.946a1.516,1.516,0,0,0-.984-.346H3.265A1.273,1.273,0,0,0,1.915,3.257V17.775a1.275,1.275,0,0,0,1.357,1.344H14.889a1.471,1.471,0,0,0,.962-.34c.387-.314.78-.619,1.171-.927a1.745,1.745,0,0,1,2.234-.1c.549.361,1.081.75,1.648,1.077a2.035,2.035,0,0,0,.918.277c1.164.032,2.329.014,3.494.013a1.3,1.3,0,0,0,1.458-1.452Q26.769,14.1,26.768,10.527Z" transform="translate(0 0.007)" fill="#272727"/>
        <path id="패스_687" data-name="패스 687" d="M215.579,120.822a.951.951,0,1,1,.951.953A.952.952,0,0,1,215.579,120.822Z" transform="translate(-198.376 -110.294)" fill="#272727"/>
        <path id="패스_688" data-name="패스 688" d="M215.579,64.553a.94.94,0,0,1,.958-.934.958.958,0,0,1,.951.951.977.977,0,0,1-.981.958A.962.962,0,0,1,215.579,64.553Z" transform="translate(-198.375 -58.541)" fill="#272727"/>
        <path id="패스_689" data-name="패스 689" d="M216.526,178.039a.945.945,0,0,1-.958-.937.958.958,0,0,1,.958-.972.978.978,0,0,1,.95.958A.958.958,0,0,1,216.526,178.039Z" transform="translate(-198.366 -162.074)" fill="#272727"/>
      </g>
    </g>
  </g>
</svg>
