<svg xmlns="http://www.w3.org/2000/svg" xmlns:xlink="http://www.w3.org/1999/xlink" width="399" height="70" viewBox="0 0 399 70">
  <defs>
    <filter id="사각형_1675" x="0" y="0" width="399" height="70" filterUnits="userSpaceOnUse">
      <feOffset input="SourceAlpha"/>
      <feGaussianBlur stdDeviation="5" result="blur"/>
      <feFlood flood-color="#a32d2d" flood-opacity="0.639"/>
      <feComposite operator="in" in2="blur"/>
      <feComposite in="SourceGraphic"/>
    </filter>
  </defs>
  <g id="그룹_447" data-name="그룹 447" transform="translate(-15 -54)">
    <g transform="matrix(1, 0, 0, 1, 15, 54)" filter="url(#사각형_1675)">
      <rect id="사각형_1675-2" data-name="사각형 1675" width="369" height="40" rx="9" transform="translate(15 15)" fill="#fff"/>
    </g>
    <path id="다각형_1" data-name="다각형 1" d="M6.5,0,13,8H0Z" transform="translate(380 94) rotate(180)" fill="#d51212"/>
    <g id="marker" transform="translate(47 78)">
      <path id="패스_15" data-name="패스 15" d="M11.5,6A3.5,3.5,0,1,0,15,9.5,3.5,3.5,0,0,0,11.5,6Zm0,5.25A1.75,1.75,0,1,1,13.25,9.5,1.75,1.75,0,0,1,11.5,11.25Z" transform="translate(-2.702 -0.749)" fill="#d51212"/>
      <path id="패스_16" data-name="패스 16" d="M10.742,21a4.612,4.612,0,0,1-3.772-1.925C3.636,14.474,1.945,11.016,1.945,8.8a8.8,8.8,0,1,1,17.595,0c0,2.221-1.691,5.678-5.026,10.278A4.612,4.612,0,0,1,10.742,21Zm0-19.09A6.9,6.9,0,0,0,3.853,8.8c0,1.759,1.656,5.011,4.662,9.157a2.752,2.752,0,0,0,4.453,0c3.006-4.146,4.662-7.4,4.662-9.157a6.9,6.9,0,0,0-6.889-6.889Z" transform="translate(-1.945 0.002)" fill="#d51212"/>
    </g>
  </g>
</svg>
