<svg id="marker" xmlns="http://www.w3.org/2000/svg" width="23.549" height="28.107" viewBox="0 0 23.549 28.107">
  <path id="패스_15" data-name="패스 15" d="M12.684,6a4.684,4.684,0,1,0,4.684,4.684A4.684,4.684,0,0,0,12.684,6Zm0,7.026a2.342,2.342,0,1,1,2.342-2.342A2.342,2.342,0,0,1,12.684,13.026Z" transform="translate(-0.909 1.028)" fill="#272727"/>
  <path id="패스_16" data-name="패스 16" d="M13.72,28.1a6.172,6.172,0,0,1-5.048-2.576C4.209,19.373,1.945,14.745,1.945,11.773a11.775,11.775,0,1,1,23.549,0c0,2.972-2.264,7.6-6.726,13.756A6.172,6.172,0,0,1,13.72,28.1Zm0-25.551A9.231,9.231,0,0,0,4.5,11.775c0,2.354,2.217,6.706,6.24,12.256a3.683,3.683,0,0,0,5.961,0c4.024-5.549,6.24-9.9,6.24-12.256A9.231,9.231,0,0,0,13.72,2.554Z" transform="translate(-1.945 0.002)" fill="#272727"/>
</svg>
