<svg xmlns="http://www.w3.org/2000/svg" width="22.111" height="24.398" viewBox="0 0 22.111 24.398">
  <path id="bell" d="M22.911,13.887,20.979,6.938A9.475,9.475,0,0,0,2.6,7.42l-1.5,6.724A5.082,5.082,0,0,0,6.068,20.33H7.2a5.082,5.082,0,0,0,9.962,0h.852a5.082,5.082,0,0,0,4.9-6.442ZM12.182,22.363A3.049,3.049,0,0,1,9.319,20.33h5.725a3.049,3.049,0,0,1-2.862,2.033Zm8.26-5.27a3.026,3.026,0,0,1-2.428,1.2H6.068a3.049,3.049,0,0,1-2.976-3.711L4.586,7.86A7.442,7.442,0,0,1,19.02,7.482l1.931,6.949a3.026,3.026,0,0,1-.51,2.661Z" transform="translate(-0.986 -0.002)" fill="#272727"/>
</svg>
