<svg xmlns="http://www.w3.org/2000/svg" width="123.264" height="55.644" viewBox="0 0 123.264 55.644">
  <g id="레이어_2" data-name="레이어 2" transform="translate(0 0)">
    <g id="레이어_1" data-name="레이어 1" transform="translate(0 0)">
      <g id="그룹_319" data-name="그룹 319">
        <path id="패스_659" data-name="패스 659" d="M36.405,34.709a22.1,22.1,0,0,1-.83,5.61,15.69,15.69,0,0,1-2.855,5.7,16.018,16.018,0,0,1-5.564,4.424,19.8,19.8,0,0,1-8.976,1.824,20.187,20.187,0,0,1-8.511-1.615,15.8,15.8,0,0,1-5.61-4.169A15.243,15.243,0,0,1,.912,40.793,21.135,21.135,0,0,1,0,34.663V7.744A4.771,4.771,0,0,1,4.762,2.974H31.644a4.762,4.762,0,0,1,4.762,4.771Zm-9.523-.429V12.99a1.824,1.824,0,0,0-1.824-1.824H11.375A1.824,1.824,0,0,0,9.551,12.99V34.28c0,3.184.739,5.528,2.217,7.06s3.649,2.3,6.467,2.3,5.063-.748,6.5-2.253,2.144-3.868,2.144-7.106Zm18.8,16.593V4.762A4.762,4.762,0,0,1,50.444,0h0a4.762,4.762,0,0,1,4.762,4.762V50.873a4.762,4.762,0,0,1-4.762,4.771h0a4.762,4.762,0,0,1-4.762-4.771Z" transform="translate(0 0)" fill="#f83636"/>
        <path id="패스_660" data-name="패스 660" d="M113.071,46.741h0a4.561,4.561,0,0,1-2.353,4c-.575.31-1.177.6-1.824.912a33.6,33.6,0,0,1-5.473,1.742,34.39,34.39,0,0,1-6.248.62,30.531,30.531,0,0,1-6.2-.383A24.957,24.957,0,0,1,85.1,51.894a14.6,14.6,0,0,1-4.807-3.32,13.938,13.938,0,0,1-3.32-5.063,19.293,19.293,0,0,1-1.186-7.106v-9.45a3.813,3.813,0,0,1,3.84-3.813H96.177a2.445,2.445,0,0,0,2.436-2.436V13.564a1.4,1.4,0,0,0-1.4-1.4H79.986A4.087,4.087,0,0,1,75.9,8.082h0A4.087,4.087,0,0,1,79.986,4h24.173a4.15,4.15,0,0,1,4.15,4.15V25.213a5.847,5.847,0,0,1-5.875,5.8H87.584a1.906,1.906,0,0,0-1.906,1.906v4.132a6.9,6.9,0,0,0,2.682,5.957,12.506,12.506,0,0,0,6.778,2.244,28.57,28.57,0,0,0,8.885-.976A37.767,37.767,0,0,0,107.8,43.1a3.9,3.9,0,0,1,5.272,3.64Zm7.3,4.132V4.762A4.762,4.762,0,0,1,125.148,0h0a4.771,4.771,0,0,1,4.771,4.762V50.873a4.771,4.771,0,0,1-4.771,4.771h0a4.762,4.762,0,0,1-4.762-4.771Z" transform="translate(-6.655 0)" fill="#f83636"/>
      </g>
    </g>
  </g>
</svg>
