<svg xmlns="http://www.w3.org/2000/svg" width="18.969" height="18.968" viewBox="0 0 18.969 18.968">
  <path id="phone-call" d="M10.3.791A.792.792,0,0,1,11.091,0a7.925,7.925,0,0,1,7.916,7.916.792.792,0,0,1-1.583,0,6.34,6.34,0,0,0-6.333-6.333A.792.792,0,0,1,10.3.791Zm.792,3.958a3.167,3.167,0,0,1,3.167,3.167.792.792,0,0,0,1.583,0,4.755,4.755,0,0,0-4.75-4.75.792.792,0,1,0,0,1.583Zm7.2,8.5a2.454,2.454,0,0,1,0,3.466l-.72.83C11.086,23.754-4.692,7.981,1.42,1.477L2.33.685A2.439,2.439,0,0,1,5.755.717c.025.025,1.491,1.93,1.491,1.93a2.454,2.454,0,0,1-.006,3.39L6.325,7.189a10.118,10.118,0,0,0,5.487,5.5l1.16-.922a2.454,2.454,0,0,1,3.389,0S18.265,13.226,18.29,13.251ZM17.2,14.4s-1.894-1.457-1.919-1.482a.871.871,0,0,0-1.226,0c-.021.022-1.618,1.294-1.618,1.294a.792.792,0,0,1-.775.12A11.882,11.882,0,0,1,4.679,7.362a.792.792,0,0,1,.115-.792s1.272-1.6,1.294-1.618a.871.871,0,0,0,0-1.226c-.025-.024-1.482-1.92-1.482-1.92a.871.871,0,0,0-1.2.031l-.91.792C-1.967,8,11.705,20.913,16.412,16.466l.721-.831A.887.887,0,0,0,17.2,14.4Z" transform="translate(-0.039 0.002)" fill="#272727"/>
</svg>
