<svg xmlns="http://www.w3.org/2000/svg" width="12.606" height="16.064" viewBox="0 0 12.606 16.064">
  <g id="레이어_2" data-name="레이어 2" transform="translate(0 0)">
    <g id="레이어_1" data-name="레이어 1" transform="translate(0 0)">
      <g id="그룹_389" data-name="그룹 389" transform="translate(0)">
        <path id="패스_665" data-name="패스 665" d="M5.878,30.559a3.335,3.335,0,0,1-.44-.157,1.331,1.331,0,0,1-.775-1.119c-.088-1.042-.151-2.084-.228-3.128q-.132-1.9-.275-3.8C4.107,21.575,4.055,20.794,4,20H14.405c-.022.349-.047.7-.071,1.045L14.127,23.9,13.9,27.282c-.047.624-.1,1.251-.135,1.875a1.416,1.416,0,0,1-1.168,1.374.275.275,0,0,0-.058.025Zm2.163-5.5h0q-.063-1.27-.129-2.535a.47.47,0,1,0-.937.03c0,.08,0,.157,0,.234l.148,2.958q.044.907.093,1.814a.47.47,0,0,0,.94-.03c0-.085,0-.168,0-.253Zm2.32-.016h0l-.115,2.235v.234a.47.47,0,0,0,.94.033c.052-.99.1-1.979.154-2.972.033-.671.069-1.344.1-2.018a.47.47,0,1,0-.937-.03c-.052.833-.093,1.671-.137,2.513Z" transform="translate(-2.904 -14.495)" fill="#272727"/>
        <path id="패스_666" data-name="패스 666" d="M6.3,4.528H.574a.509.509,0,0,1-.489-.764A2.977,2.977,0,0,1,2.729,2.021a4.734,4.734,0,0,1,.484,0c.118,0,.165-.025.2-.148A2.449,2.449,0,0,1,5.338.03a3.67,3.67,0,0,1,.8-.049A5.809,5.809,0,0,1,7.278.036,2.416,2.416,0,0,1,9.2,1.872c.033.124.082.154.2.148a3.6,3.6,0,0,1,1.418.173,2.955,2.955,0,0,1,1.737,1.636.47.47,0,0,1-.454.7ZM4.345,2.007H8.282A1.453,1.453,0,0,0,7.1.962a6.873,6.873,0,0,0-1.575,0A1.449,1.449,0,0,0,4.345,2.007Z" transform="translate(-0.014 0.026)" fill="#272727"/>
      </g>
    </g>
  </g>
</svg>
