<svg xmlns="http://www.w3.org/2000/svg" width="52" height="52" viewBox="0 0 52 52">
  <g id="그룹_516" data-name="그룹 516" transform="translate(-19 -606)">
    <g id="타원_71" data-name="타원 71" transform="translate(19 606)" fill="#f76060" stroke="red" stroke-width="1">
      <circle cx="26" cy="26" r="26" stroke="none"/>
      <circle cx="26" cy="26" r="25.5" fill="none"/>
    </g>
    <g id="레이어_2" data-name="레이어 2" transform="translate(31.01 617)">
      <g id="레이어_1" data-name="레이어 1" transform="translate(-0.01)">
        <g id="그룹_512" data-name="그룹 512">
          <path id="패스_768" data-name="패스 768" d="M14.217,0A3.336,3.336,0,0,1,16.09,1.093c.414.427.861.824,1.28,1.248a1.04,1.04,0,0,0,.981.308c.719-.115,1.44-.223,2.162-.312a2.547,2.547,0,0,1,3.005,2.24c.124.7.246,1.4.356,2.1a1.06,1.06,0,0,0,.6.833c.657.333,1.307.681,1.955,1.034a2.535,2.535,0,0,1,1.138,3.5c-.313.657-.629,1.312-.961,1.96a1.1,1.1,0,0,0,0,1.08c.321.621.62,1.253.925,1.882a2.549,2.549,0,0,1-1.164,3.6c-.625.334-1.246.677-1.88,1a1.094,1.094,0,0,0-.627.879c-.115.728-.236,1.456-.383,2.178a2.542,2.542,0,0,1-3.068,2.112c-.719-.113-1.441-.209-2.162-.313a.96.96,0,0,0-.854.285q-.811.8-1.636,1.579a2.535,2.535,0,0,1-3.683,0c-.528-.5-1.057-1.005-1.57-1.522a1.085,1.085,0,0,0-1.028-.327c-.718.12-1.439.224-2.162.308a2.546,2.546,0,0,1-2.993-2.287c-.115-.69-.241-1.378-.356-2.068a1.039,1.039,0,0,0-.591-.811c-.641-.33-1.281-.676-1.923-1.02A2.55,2.55,0,0,1,.309,16.992c.3-.63.6-1.263.925-1.883a1.125,1.125,0,0,0,0-1.13C.906,13.343.6,12.693.29,12.045a2.539,2.539,0,0,1,1.138-3.5c.64-.347,1.28-.7,1.931-1.02a1.117,1.117,0,0,0,.64-.9c.11-.719.233-1.438.378-2.15a2.543,2.543,0,0,1,3.086-2.12c.711.115,1.423.207,2.134.31a.958.958,0,0,0,.854-.281c.439-.431.9-.844,1.324-1.286A3.34,3.34,0,0,1,13.648,0ZM20.9,25.1a.856.856,0,0,0,.934-.724c.122-.64.26-1.28.335-1.927a2.91,2.91,0,0,1,1.783-2.5c.575-.261,1.123-.584,1.682-.883a.878.878,0,0,0,.427-1.322c-.322-.663-.64-1.327-.972-1.986a2.594,2.594,0,0,1,0-2.45c.314-.625.617-1.255.925-1.884.348-.711.227-1.092-.466-1.46-.626-.332-1.25-.668-1.879-1a2.615,2.615,0,0,1-1.44-2.017c-.119-.737-.252-1.472-.389-2.205a.862.862,0,0,0-1.063-.758c-.721.1-1.442.2-2.161.315a2.672,2.672,0,0,1-2.455-.8c-.5-.505-1.017-.99-1.528-1.482a.876.876,0,0,0-1.389,0q-.812.778-1.617,1.559a2.5,2.5,0,0,1-2.142.748Q8.313,4.174,7.152,4a.884.884,0,0,0-1.138.8C5.9,5.4,5.765,6.008,5.7,6.614a2.918,2.918,0,0,1-1.8,2.52c-.575.261-1.124.583-1.682.883a.875.875,0,0,0-.422,1.3c.321.663.64,1.327.972,1.986a2.608,2.608,0,0,1,0,2.475c-.324.64-.632,1.29-.947,1.936a.889.889,0,0,0,.457,1.375c.633.337,1.268.684,1.908,1.009a2.627,2.627,0,0,1,1.455,2.037c.116.728.248,1.453.385,2.177a.869.869,0,0,0,1.108.767c.719-.108,1.441-.206,2.161-.313a2.692,2.692,0,0,1,2.423.817c.5.5,1.017.99,1.529,1.482a.869.869,0,0,0,1.369,0c.512-.492,1.031-.976,1.529-1.482a2.715,2.715,0,0,1,2.561-.8c.742.132,1.494.218,2.187.315Z" transform="translate(0.01)" fill="#fff"/>
          <path id="패스_769" data-name="패스 769" d="M119.152,115.731c-.075.168-.142.341-.231.5a1.174,1.174,0,0,1-.21.228L107.955,127.22a1.031,1.031,0,0,1-.7.393.833.833,0,0,1-.7-1.353,2.226,2.226,0,0,1,.193-.208l10.8-10.8a1,1,0,0,1,.733-.374A.906.906,0,0,1,119.152,115.731Z" transform="translate(-98.801 -106.707)" fill="#fff"/>
          <path id="패스_770" data-name="패스 770" d="M108.663,104.415a3.064,3.064,0,1,1,2.174-.886A3.073,3.073,0,0,1,108.663,104.415Zm.024-4.458a1.391,1.391,0,0,0-1.407,1.37,1.395,1.395,0,1,0,2.79.023A1.389,1.389,0,0,0,108.687,99.957Z" transform="translate(-98.088 -91.279)" fill="#fff"/>
          <path id="패스_771" data-name="패스 771" d="M203.065,224.16a3.059,3.059,0,1,1-2.168.9A3.071,3.071,0,0,1,203.065,224.16Zm.011,4.455a1.385,1.385,0,1,0-.986-.4A1.391,1.391,0,0,0,203.076,228.615Z" transform="translate(-185.773 -208.215)" fill="#fff"/>
        </g>
      </g>
    </g>
  </g>
</svg>
