<svg xmlns="http://www.w3.org/2000/svg" width="33" height="24.501" viewBox="0 0 33 24.501">
  <path id="Camera_Icon" data-name="Camera Icon" d="M30.873,24.5H2.128A2.13,2.13,0,0,1,0,22.374V6.922A2.129,2.129,0,0,1,2.128,4.8h5.06a1.194,1.194,0,0,0,.983-.517L10.525.841A2.46,2.46,0,0,1,12.238,0h8.527a2.453,2.453,0,0,1,1.712.841l2.342,3.421a1.236,1.236,0,0,0,1.017.535h5.038A2.129,2.129,0,0,1,33,6.922V22.374A2.129,2.129,0,0,1,30.873,24.5ZM16.5,6.925a7.457,7.457,0,1,0,7.451,7.457A7.463,7.463,0,0,0,16.5,6.925Zm9.048-.532a1.065,1.065,0,1,0,1.065,1.065A1.066,1.066,0,0,0,25.549,6.393ZM16.5,20.24a5.858,5.858,0,1,1,5.854-5.858A5.863,5.863,0,0,1,16.5,20.24ZM6.387,3.2H2.129V2.131A1.066,1.066,0,0,1,3.193,1.066h2.13A1.066,1.066,0,0,1,6.387,2.131V3.2Z" fill="#272727"/>
</svg>
