<svg xmlns="http://www.w3.org/2000/svg" width="19.95" height="19.928" viewBox="0 0 19.95 19.928">
  <path id="share" d="M16.047,12.178a3.869,3.869,0,0,0-3.187,1.68l-5.4-2.44a3.8,3.8,0,0,0,0-2.9l5.4-2.453a3.869,3.869,0,1,0-.687-2.194,3.847,3.847,0,0,0,.066.653L6.5,7.134A3.876,3.876,0,1,0,6.487,12.8l5.752,2.6a3.932,3.932,0,0,0-.066.652,3.875,3.875,0,1,0,3.874-3.874Zm0-10.517a2.214,2.214,0,1,1-2.214,2.214A2.214,2.214,0,0,1,16.047,1.66ZM3.87,12.178A2.214,2.214,0,1,1,6.084,9.963,2.214,2.214,0,0,1,3.87,12.178Zm12.177,6.088a2.214,2.214,0,1,1,2.214-2.214,2.214,2.214,0,0,1-2.214,2.214Z" transform="translate(0.027 0.001)" fill="#272727"/>
</svg>
