<svg xmlns="http://www.w3.org/2000/svg" width="61" height="61" viewBox="0 0 61 61">
  <g id="그룹_528" data-name="그룹 528" transform="translate(-101 -753)">
    <circle id="타원_94" data-name="타원 94" cx="30.5" cy="30.5" r="30.5" transform="translate(101 753)" fill="#fee500"/>
    <path id="패스_787" data-name="패스 787" d="M38.675,36C30.57,36,24,41.18,24,47.571c0,4.131,2.747,7.756,6.879,9.8-.225.775-1.444,4.987-1.493,5.318,0,0-.029.249.132.343a.443.443,0,0,0,.35.021c.462-.064,5.354-3.5,6.2-4.1a18.59,18.59,0,0,0,2.606.182c8.1,0,14.675-5.18,14.675-11.571S46.78,36,38.675,36Z" transform="translate(93.325 734.958)" fill="#483332"/>
  </g>
</svg>
