<svg xmlns="http://www.w3.org/2000/svg" width="61" height="61" viewBox="0 0 61 61">
  <g id="그룹_529" data-name="그룹 529" transform="translate(-210 -753)">
    <circle id="타원_93" data-name="타원 93" cx="30.5" cy="30.5" r="30.5" transform="translate(210 753)" fill="#2ec75a"/>
    <g id="레이어_2" data-name="레이어 2" transform="translate(228 772.135)">
      <g id="레이어_1" data-name="레이어 1" transform="translate(0 0.004)">
        <path id="패스_789" data-name="패스 789" d="M0,22.645V.024C2.634.024,5.207,0,7.775.058c.3,0,.671.417.887.726,2.291,3.3,4.545,6.614,6.817,9.921a1.6,1.6,0,0,0,.786.63V.138A10.471,10.471,0,0,1,17.307.026c2.011,0,4.027.027,6.039-.021.811-.021,1.145.174,1.145,1.063q-.048,10.254,0,20.51c0,.861-.277,1.109-1.116,1.086-1.936-.055-3.876-.069-5.809,0a2.132,2.132,0,0,1-2.128-1.088c-2.133-3.219-4.343-6.384-6.529-9.569-.163-.229-.364-.458-.74-.916-.055.57-.108.877-.11,1.182,0,3.077-.03,6.153,0,9.23.011.877-.229,1.194-1.145,1.166C4.646,22.6,2.373,22.645,0,22.645Z" transform="translate(0 -0.004)" fill="#fff"/>
      </g>
    </g>
  </g>
</svg>
